<?xml version="1.0" encoding="utf-8"?>
<svg version="1.1" id="Capa_1" xmlns="http://www.w3.org/2000/svg" xmlns:xlink="http://www.w3.org/1999/xlink" x="0px" y="0px"
	 viewBox="0 0 426.86 185.14" style="enable-background:new 0 0 426.86 185.14;" xml:space="preserve">
<style type="text/css">
	.st0{fill:#12170B;}
	.st1{fill:#6BA439;}
</style>
<g>
	<g>
		<path class="st0" d="M87.62,22.11c-37.35,0-67.74,30.39-67.74,67.74c0,37.35,30.39,67.74,67.74,67.74s67.74-30.39,67.74-67.74
			C155.36,52.5,124.97,22.11,87.62,22.11z M59.6,142.31c-5.71-3.07-10.87-7.04-15.28-11.72V90.63l15.28-9.96V142.31z M81.38,149.01
			c-4.69-0.49-9.22-1.53-13.52-3.05V65.93l13.52-10.07V149.01z M106.37,146.31c-5.29,1.76-10.9,2.8-16.73,2.99v-24.34l16.73-12.66
			V146.31z M106.37,101.94L89.64,114.6v-57l16.73,16.73L106.37,101.94z M130.92,130.59c-4.67,4.96-10.17,9.12-16.29,12.25V90.28
			l16.29,9.32L130.92,130.59z M114.63,80.77v-9.86L85.91,42.18l-26.3,19.6v9.03L36.06,86.16v33.32c-5.03-8.73-7.92-18.85-7.92-29.63
			c0-32.8,26.68-59.48,59.48-59.48c32.8,0,59.48,26.68,59.48,59.48c0,10.78-2.88,20.9-7.92,29.63V94.81L114.63,80.77z"/>
		<polygon class="st1" points="89.64,66.42 89.64,114.6 100.13,106.66 100.13,76.91 		"/>
		<path class="st1" d="M67.86,65.93v80.02c2.36,0.83,4.79,1.52,7.28,2.05v-87.5L67.86,65.93z"/>
		<path class="st1" d="M89.64,124.96v24.34c3.59-0.12,7.09-0.56,10.49-1.29v-30.98L89.64,124.96z"/>
		<path class="st1" d="M44.32,90.63v39.95c2.74,2.91,5.77,5.55,9.04,7.86l0-53.71L44.32,90.63z"/>
		<path class="st1" d="M114.63,97.43v45.41c3.58-1.83,6.94-4.01,10.05-6.5v-33.16L114.63,97.43z"/>
	</g>
	<g>
		<g>
			<path class="st0" d="M170.7,156.29h-3.18l-0.59,1.62h-1l2.64-7.25h1.1l2.63,7.25h-1L170.7,156.29z M170.43,155.52l-1.32-3.68
				l-1.32,3.68H170.43z"/>
			<path class="st0" d="M174.5,152.35c0.32-0.57,0.76-1.01,1.31-1.33c0.55-0.32,1.17-0.48,1.85-0.48c0.79,0,1.49,0.19,2.08,0.58
				c0.59,0.38,1.02,0.93,1.3,1.63h-1.14c-0.2-0.44-0.49-0.78-0.87-1.01c-0.38-0.24-0.84-0.36-1.36-0.36c-0.51,0-0.97,0.12-1.37,0.36
				c-0.4,0.24-0.72,0.57-0.95,1.01c-0.23,0.44-0.35,0.95-0.35,1.53c0,0.58,0.11,1.09,0.35,1.52c0.23,0.44,0.55,0.77,0.95,1.01
				c0.4,0.24,0.86,0.36,1.37,0.36c0.53,0,0.98-0.12,1.36-0.35c0.38-0.23,0.67-0.57,0.87-1.01h1.14c-0.27,0.7-0.7,1.24-1.3,1.62
				c-0.59,0.38-1.29,0.57-2.08,0.57c-0.68,0-1.29-0.16-1.85-0.48c-0.55-0.32-0.99-0.76-1.31-1.32c-0.32-0.56-0.48-1.2-0.48-1.91
				C174.02,153.55,174.18,152.91,174.5,152.35z"/>
			<path class="st0" d="M183.52,152.35c0.32-0.57,0.76-1.01,1.31-1.33c0.55-0.32,1.17-0.48,1.85-0.48c0.79,0,1.49,0.19,2.08,0.58
				c0.59,0.38,1.02,0.93,1.3,1.63h-1.14c-0.2-0.44-0.49-0.78-0.87-1.01c-0.38-0.24-0.84-0.36-1.36-0.36c-0.51,0-0.97,0.12-1.37,0.36
				c-0.4,0.24-0.72,0.57-0.95,1.01c-0.23,0.44-0.35,0.95-0.35,1.53c0,0.58,0.11,1.09,0.35,1.52c0.23,0.44,0.55,0.77,0.95,1.01
				c0.4,0.24,0.86,0.36,1.37,0.36c0.53,0,0.98-0.12,1.36-0.35c0.38-0.23,0.67-0.57,0.87-1.01h1.14c-0.27,0.7-0.7,1.24-1.3,1.62
				c-0.59,0.38-1.29,0.57-2.08,0.57c-0.68,0-1.29-0.16-1.85-0.48c-0.55-0.32-0.99-0.76-1.31-1.32c-0.32-0.56-0.48-1.2-0.48-1.91
				C183.04,153.55,183.2,152.91,183.52,152.35z"/>
			<path class="st0" d="M193.86,157.51c-0.56-0.32-1-0.76-1.32-1.33c-0.32-0.57-0.49-1.21-0.49-1.92c0-0.71,0.16-1.35,0.49-1.92
				c0.32-0.57,0.77-1.01,1.32-1.33c0.56-0.32,1.17-0.48,1.85-0.48c0.68,0,1.3,0.16,1.86,0.48c0.56,0.32,1,0.76,1.32,1.32
				c0.32,0.57,0.48,1.21,0.48,1.92c0,0.72-0.16,1.36-0.48,1.92c-0.32,0.56-0.76,1.01-1.32,1.32c-0.56,0.32-1.18,0.48-1.86,0.48
				C195.04,157.99,194.42,157.83,193.86,157.51z M197.09,156.81c0.41-0.24,0.73-0.58,0.96-1.01c0.23-0.44,0.35-0.95,0.35-1.53
				c0-0.59-0.12-1.1-0.35-1.53c-0.23-0.44-0.55-0.77-0.96-1.01c-0.4-0.24-0.86-0.36-1.38-0.36c-0.52,0-0.98,0.12-1.38,0.36
				c-0.4,0.24-0.72,0.57-0.96,1.01c-0.23,0.44-0.35,0.95-0.35,1.53c0,0.58,0.12,1.09,0.35,1.53c0.23,0.44,0.55,0.78,0.96,1.01
				c0.41,0.24,0.87,0.36,1.38,0.36C196.22,157.16,196.68,157.04,197.09,156.81z"/>
			<path class="st0" d="M202.5,150.62v4.61c0,0.65,0.16,1.13,0.48,1.44c0.32,0.31,0.76,0.47,1.32,0.47c0.56,0,1-0.16,1.31-0.47
				c0.32-0.31,0.48-0.79,0.48-1.44v-4.61h0.95v4.6c0,0.61-0.12,1.12-0.37,1.53c-0.24,0.41-0.57,0.72-0.99,0.93
				c-0.42,0.2-0.88,0.3-1.4,0.3c-0.52,0-0.98-0.1-1.4-0.3c-0.41-0.2-0.74-0.51-0.98-0.93c-0.24-0.41-0.36-0.93-0.36-1.53v-4.6H202.5
				z"/>
			<path class="st0" d="M215.31,157.91h-0.95l-3.83-5.8v5.8h-0.95v-7.3h0.95l3.83,5.79v-5.79h0.95V157.91z"/>
			<path class="st0" d="M222.35,150.62v0.77h-1.99v6.52h-0.95v-6.52h-2v-0.77H222.35z"/>
			<path class="st0" d="M225.42,150.62v7.29h-0.95v-7.29H225.42z"/>
			<path class="st0" d="M233.71,157.91h-0.95l-3.83-5.8v5.8h-0.95v-7.3h0.95l3.83,5.79v-5.79h0.95V157.91z"/>
			<path class="st0" d="M241.8,152.74c-0.2-0.43-0.5-0.75-0.88-0.99c-0.38-0.23-0.83-0.35-1.34-0.35c-0.51,0-0.97,0.12-1.38,0.35
				c-0.41,0.23-0.73,0.57-0.96,1c-0.23,0.44-0.35,0.94-0.35,1.51s0.12,1.07,0.35,1.51c0.23,0.43,0.55,0.77,0.96,1
				c0.41,0.23,0.87,0.35,1.38,0.35c0.71,0,1.3-0.21,1.76-0.64c0.46-0.43,0.73-1,0.81-1.73h-2.91v-0.77h3.92v0.73
				c-0.06,0.6-0.24,1.15-0.56,1.65c-0.32,0.5-0.74,0.89-1.27,1.18c-0.52,0.29-1.11,0.43-1.75,0.43c-0.68,0-1.29-0.16-1.85-0.48
				c-0.56-0.32-1-0.76-1.32-1.32c-0.32-0.56-0.49-1.2-0.49-1.91c0-0.71,0.16-1.35,0.49-1.92c0.32-0.57,0.77-1.01,1.32-1.33
				c0.56-0.32,1.17-0.48,1.85-0.48c0.77,0,1.46,0.19,2.06,0.58c0.6,0.38,1.03,0.92,1.3,1.62H241.8z"/>
			<path class="st0" d="M254.68,157.91l-0.95-0.96c-0.36,0.37-0.74,0.64-1.14,0.82c-0.4,0.18-0.86,0.27-1.37,0.27
				c-0.5,0-0.95-0.09-1.33-0.27c-0.39-0.18-0.69-0.44-0.9-0.77c-0.21-0.33-0.32-0.73-0.32-1.17c0-0.51,0.14-0.96,0.43-1.34
				c0.29-0.39,0.72-0.69,1.28-0.92c-0.22-0.27-0.38-0.51-0.48-0.73c-0.1-0.22-0.15-0.47-0.15-0.73c0-0.31,0.08-0.58,0.24-0.83
				c0.16-0.25,0.38-0.44,0.67-0.58s0.63-0.21,1.01-0.21c0.38,0,0.7,0.07,0.98,0.22c0.28,0.15,0.49,0.35,0.63,0.61
				c0.14,0.26,0.2,0.55,0.19,0.87h-0.95c0.01-0.29-0.07-0.51-0.24-0.67c-0.17-0.16-0.38-0.25-0.65-0.25c-0.28,0-0.5,0.08-0.67,0.24
				c-0.17,0.16-0.26,0.36-0.26,0.6c0,0.21,0.06,0.41,0.17,0.61c0.12,0.2,0.31,0.44,0.58,0.72l2.18,2.19l0.19-0.29l0.71-1.19h1.02
				l-0.86,1.49c-0.12,0.21-0.26,0.43-0.42,0.66l1.64,1.64H254.68z M252.24,157c0.3-0.15,0.59-0.37,0.86-0.68l-2.14-2.15
				c-0.89,0.34-1.34,0.88-1.34,1.62c0,0.41,0.15,0.75,0.44,1.02c0.3,0.27,0.68,0.41,1.16,0.41
				C251.6,157.22,251.94,157.15,252.24,157z"/>
			<path class="st0" d="M268.89,150.68v7.24h-0.95v-5.4l-2.41,5.4h-0.67l-2.42-5.41v5.41h-0.95v-7.24h1.02l2.68,5.98l2.68-5.98
				H268.89z"/>
			<path class="st0" d="M272.89,157.51c-0.56-0.32-1-0.76-1.32-1.33c-0.32-0.57-0.49-1.21-0.49-1.92c0-0.71,0.16-1.35,0.49-1.92
				c0.32-0.57,0.76-1.01,1.32-1.33c0.56-0.32,1.17-0.48,1.85-0.48c0.68,0,1.3,0.16,1.86,0.48c0.56,0.32,1,0.76,1.32,1.32
				c0.32,0.57,0.48,1.21,0.48,1.92c0,0.72-0.16,1.36-0.48,1.92c-0.32,0.56-0.76,1.01-1.32,1.32c-0.56,0.32-1.18,0.48-1.86,0.48
				C274.07,157.99,273.45,157.83,272.89,157.51z M276.12,156.81c0.41-0.24,0.73-0.58,0.96-1.01c0.23-0.44,0.35-0.95,0.35-1.53
				c0-0.59-0.12-1.1-0.35-1.53c-0.23-0.44-0.55-0.77-0.96-1.01c-0.4-0.24-0.86-0.36-1.38-0.36c-0.52,0-0.98,0.12-1.38,0.36
				c-0.4,0.24-0.72,0.57-0.96,1.01c-0.23,0.44-0.35,0.95-0.35,1.53c0,0.58,0.12,1.09,0.35,1.53c0.23,0.44,0.55,0.78,0.96,1.01
				c0.41,0.24,0.87,0.36,1.38,0.36C275.25,157.16,275.71,157.04,276.12,156.81z"/>
			<path class="st0" d="M284.44,157.91l-1.74-2.98h-1.15v2.98h-0.95v-7.29h2.35c0.55,0,1.02,0.09,1.4,0.28
				c0.38,0.19,0.66,0.44,0.85,0.76c0.19,0.32,0.28,0.69,0.28,1.1c0,0.5-0.14,0.94-0.43,1.33s-0.72,0.64-1.3,0.76l1.83,3.05H284.44z
				 M281.55,154.17h1.4c0.52,0,0.9-0.13,1.16-0.38c0.26-0.25,0.39-0.59,0.39-1.02c0-0.43-0.13-0.77-0.38-1
				c-0.25-0.24-0.64-0.36-1.17-0.36h-1.4V154.17z"/>
			<path class="st0" d="M292.39,150.62v0.77h-1.99v6.52h-0.95v-6.52h-2v-0.77H292.39z"/>
			<path class="st0" d="M300.02,152.74c-0.2-0.43-0.5-0.75-0.88-0.99c-0.38-0.23-0.83-0.35-1.34-0.35c-0.51,0-0.97,0.12-1.38,0.35
				c-0.41,0.23-0.73,0.57-0.96,1c-0.23,0.44-0.35,0.94-0.35,1.51s0.12,1.07,0.35,1.51c0.23,0.43,0.55,0.77,0.96,1
				c0.41,0.23,0.87,0.35,1.38,0.35c0.71,0,1.3-0.21,1.76-0.64c0.46-0.43,0.73-1,0.81-1.73h-2.91v-0.77h3.92v0.73
				c-0.06,0.6-0.24,1.15-0.56,1.65c-0.32,0.5-0.74,0.89-1.27,1.18c-0.52,0.29-1.11,0.43-1.75,0.43c-0.68,0-1.29-0.16-1.85-0.48
				c-0.56-0.32-1-0.76-1.32-1.32c-0.32-0.56-0.49-1.2-0.49-1.91c0-0.71,0.16-1.35,0.49-1.92c0.32-0.57,0.77-1.01,1.32-1.33
				c0.56-0.32,1.17-0.48,1.85-0.48c0.77,0,1.46,0.19,2.06,0.58c0.6,0.38,1.03,0.92,1.3,1.62H300.02z"/>
			<path class="st0" d="M307.89,156.29h-3.18l-0.59,1.62h-1l2.64-7.25h1.1l2.63,7.25h-1L307.89,156.29z M307.62,155.52l-1.32-3.68
				l-1.32,3.68H307.62z"/>
			<path class="st0" d="M317.09,152.74c-0.2-0.43-0.5-0.75-0.88-0.99c-0.38-0.23-0.83-0.35-1.34-0.35c-0.51,0-0.97,0.12-1.38,0.35
				c-0.41,0.23-0.73,0.57-0.96,1c-0.23,0.44-0.35,0.94-0.35,1.51s0.12,1.07,0.35,1.51c0.23,0.43,0.55,0.77,0.96,1
				c0.41,0.23,0.87,0.35,1.38,0.35c0.71,0,1.3-0.21,1.76-0.64c0.46-0.43,0.73-1,0.81-1.73h-2.91v-0.77h3.92v0.73
				c-0.06,0.6-0.24,1.15-0.56,1.65c-0.32,0.5-0.74,0.89-1.27,1.18c-0.52,0.29-1.11,0.43-1.75,0.43c-0.68,0-1.29-0.16-1.85-0.48
				c-0.56-0.32-1-0.76-1.32-1.32c-0.32-0.56-0.49-1.2-0.49-1.91c0-0.71,0.16-1.35,0.49-1.92c0.32-0.57,0.77-1.01,1.32-1.33
				c0.56-0.32,1.17-0.48,1.85-0.48c0.77,0,1.46,0.19,2.06,0.58c0.6,0.38,1.03,0.92,1.3,1.62H317.09z"/>
			<path class="st0" d="M321.6,151.4v2.44h2.66v0.78h-2.66v2.51h2.97v0.78h-3.92v-7.3h3.92v0.78H321.6z"/>
			<path class="st0" d="M332.07,157.46c-0.38-0.17-0.68-0.41-0.89-0.71c-0.22-0.3-0.33-0.65-0.33-1.05h1.01
				c0.03,0.34,0.18,0.63,0.42,0.86c0.25,0.23,0.61,0.35,1.08,0.35c0.45,0,0.81-0.11,1.07-0.34c0.26-0.23,0.39-0.52,0.39-0.87
				c0-0.28-0.08-0.51-0.23-0.68c-0.15-0.17-0.35-0.31-0.58-0.4c-0.23-0.09-0.54-0.19-0.93-0.29c-0.48-0.13-0.87-0.25-1.16-0.38
				c-0.29-0.13-0.54-0.32-0.74-0.59c-0.21-0.27-0.31-0.63-0.31-1.08c0-0.4,0.1-0.75,0.3-1.06c0.2-0.31,0.49-0.54,0.85-0.71
				c0.37-0.17,0.79-0.25,1.26-0.25c0.68,0,1.24,0.17,1.68,0.51c0.44,0.34,0.68,0.79,0.74,1.36h-1.05c-0.03-0.28-0.18-0.52-0.44-0.74
				c-0.26-0.21-0.6-0.32-1.02-0.32c-0.4,0-0.72,0.1-0.97,0.31c-0.25,0.21-0.38,0.49-0.38,0.86c0,0.27,0.07,0.48,0.22,0.65
				c0.15,0.17,0.33,0.29,0.55,0.38s0.53,0.19,0.93,0.3c0.48,0.13,0.87,0.26,1.16,0.39c0.29,0.13,0.54,0.33,0.75,0.6
				c0.21,0.27,0.31,0.63,0.31,1.09c0,0.36-0.09,0.69-0.28,1c-0.19,0.31-0.47,0.57-0.84,0.76c-0.37,0.2-0.81,0.29-1.31,0.29
				C332.88,157.71,332.45,157.63,332.07,157.46z"/>
			<path class="st0" d="M339.08,151.12v2.44h2.66v0.78h-2.66v2.51h2.97v0.78h-3.92v-7.3h3.92v0.78H339.08z"/>
			<path class="st0" d="M348.27,157.64l-1.74-2.98h-1.15v2.98h-0.95v-7.29h2.35c0.55,0,1.02,0.09,1.4,0.28
				c0.38,0.19,0.66,0.44,0.85,0.76c0.19,0.32,0.28,0.69,0.28,1.1c0,0.5-0.14,0.94-0.43,1.33s-0.72,0.64-1.3,0.76l1.83,3.05H348.27z
				 M345.39,153.9h1.4c0.52,0,0.9-0.13,1.16-0.38c0.26-0.25,0.39-0.59,0.39-1.02c0-0.43-0.13-0.77-0.38-1
				c-0.25-0.24-0.64-0.36-1.17-0.36h-1.4V153.9z"/>
			<path class="st0" d="M357.76,150.35l-2.75,7.29h-1.1l-2.75-7.29h1.01l2.29,6.29l2.29-6.29H357.76z"/>
			<path class="st0" d="M360.7,150.35v7.29h-0.95v-7.29H360.7z"/>
			<path class="st0" d="M363.39,152.07c0.32-0.57,0.76-1.01,1.31-1.33s1.17-0.48,1.85-0.48c0.8,0,1.49,0.19,2.08,0.58
				s1.02,0.93,1.3,1.63h-1.14c-0.2-0.44-0.49-0.78-0.87-1.01c-0.38-0.24-0.84-0.36-1.37-0.36c-0.51,0-0.97,0.12-1.37,0.36
				c-0.4,0.24-0.72,0.57-0.95,1.01c-0.23,0.44-0.35,0.95-0.35,1.53c0,0.58,0.11,1.09,0.35,1.52c0.23,0.44,0.55,0.77,0.95,1.01
				c0.4,0.24,0.86,0.36,1.37,0.36c0.53,0,0.98-0.12,1.37-0.35c0.38-0.23,0.67-0.57,0.87-1.01h1.14c-0.27,0.7-0.7,1.24-1.3,1.62
				c-0.59,0.38-1.29,0.57-2.08,0.57c-0.68,0-1.29-0.16-1.85-0.48c-0.55-0.32-0.99-0.76-1.31-1.32c-0.32-0.56-0.48-1.2-0.48-1.91
				C362.9,153.28,363.06,152.64,363.39,152.07z"/>
			<path class="st0" d="M373.23,151.12v2.44h2.66v0.78h-2.66v2.51h2.97v0.78h-3.92v-7.3h3.92v0.78H373.23z"/>
			<path class="st0" d="M379.6,157.46c-0.38-0.17-0.68-0.41-0.89-0.71c-0.22-0.3-0.33-0.65-0.33-1.05h1.01
				c0.03,0.34,0.18,0.63,0.42,0.86c0.25,0.23,0.61,0.35,1.08,0.35c0.45,0,0.81-0.11,1.07-0.34c0.26-0.23,0.39-0.52,0.39-0.87
				c0-0.28-0.08-0.51-0.23-0.68c-0.15-0.17-0.35-0.31-0.58-0.4c-0.23-0.09-0.54-0.19-0.93-0.29c-0.48-0.13-0.87-0.25-1.16-0.38
				c-0.29-0.13-0.54-0.32-0.74-0.59c-0.21-0.27-0.31-0.63-0.31-1.08c0-0.4,0.1-0.75,0.3-1.06c0.2-0.31,0.49-0.54,0.85-0.71
				c0.37-0.17,0.79-0.25,1.26-0.25c0.68,0,1.24,0.17,1.68,0.51c0.44,0.34,0.68,0.79,0.74,1.36h-1.05c-0.04-0.28-0.18-0.52-0.44-0.74
				c-0.26-0.21-0.6-0.32-1.02-0.32c-0.4,0-0.72,0.1-0.97,0.31c-0.25,0.21-0.38,0.49-0.38,0.86c0,0.27,0.07,0.48,0.23,0.65
				c0.15,0.17,0.33,0.29,0.55,0.38c0.22,0.09,0.53,0.19,0.93,0.3c0.48,0.13,0.87,0.26,1.16,0.39c0.29,0.13,0.54,0.33,0.75,0.6
				c0.21,0.27,0.31,0.63,0.31,1.09c0,0.36-0.09,0.69-0.28,1c-0.19,0.31-0.47,0.57-0.84,0.76c-0.37,0.2-0.81,0.29-1.31,0.29
				C380.41,157.71,379.98,157.63,379.6,157.46z"/>
			<path class="st0" d="M390.35,156.87h2.55v0.77h-3.5v-7.29h0.95V156.87z"/>
			<path class="st0" d="M395.81,156.87h2.55v0.77h-3.5v-7.29h0.95V156.87z"/>
			<path class="st0" d="M400.44,152.07c0.32-0.57,0.76-1.01,1.31-1.33c0.55-0.32,1.17-0.48,1.85-0.48c0.79,0,1.49,0.19,2.08,0.58
				c0.59,0.38,1.02,0.93,1.3,1.63h-1.14c-0.2-0.44-0.49-0.78-0.87-1.01c-0.38-0.24-0.84-0.36-1.36-0.36c-0.51,0-0.97,0.12-1.37,0.36
				c-0.4,0.24-0.72,0.57-0.95,1.01c-0.23,0.44-0.35,0.95-0.35,1.53c0,0.58,0.11,1.09,0.35,1.52c0.23,0.44,0.55,0.77,0.95,1.01
				c0.4,0.24,0.86,0.36,1.37,0.36c0.53,0,0.98-0.12,1.36-0.35c0.38-0.23,0.67-0.57,0.87-1.01h1.14c-0.27,0.7-0.7,1.24-1.3,1.62
				c-0.59,0.38-1.29,0.57-2.08,0.57c-0.68,0-1.29-0.16-1.85-0.48c-0.55-0.32-0.99-0.76-1.31-1.32c-0.32-0.56-0.48-1.2-0.48-1.91
				C399.96,153.28,400.12,152.64,400.44,152.07z"/>
		</g>
		<g>
			<g>
				<path class="st0" d="M181.1,138.63l-5.92-10.75h-1.66v10.75h-6.94v-28.48h11.64c2.24,0,4.16,0.39,5.74,1.18
					c1.58,0.78,2.76,1.86,3.55,3.23c0.78,1.37,1.18,2.89,1.18,4.56c0,1.89-0.53,3.58-1.6,5.07c-1.07,1.49-2.64,2.54-4.73,3.16
					l6.57,11.28H181.1z M173.51,122.97h4.3c1.27,0,2.22-0.31,2.86-0.93c0.64-0.62,0.95-1.5,0.95-2.64c0-1.08-0.32-1.93-0.95-2.56
					c-0.64-0.62-1.59-0.93-2.86-0.93h-4.3V122.97z"/>
				<path class="st0" d="M199.5,115.71v5.76h9.29v5.35h-9.29v6.25H210v5.56h-17.44v-28.48H210v5.56H199.5z"/>
				<path class="st0" d="M218.93,137.9c-1.65-0.68-2.97-1.68-3.96-3c-0.99-1.32-1.51-2.92-1.56-4.79h7.38
					c0.11,1.05,0.47,1.86,1.1,2.41c0.62,0.55,1.43,0.83,2.43,0.83c1.03,0,1.84-0.24,2.43-0.71c0.59-0.47,0.89-1.13,0.89-1.97
					c0-0.7-0.24-1.28-0.71-1.74c-0.47-0.46-1.05-0.84-1.74-1.14c-0.69-0.3-1.67-0.63-2.94-1.01c-1.84-0.57-3.34-1.14-4.5-1.7
					c-1.16-0.57-2.16-1.41-3-2.51c-0.84-1.11-1.26-2.56-1.26-4.34c0-2.65,0.96-4.73,2.88-6.23c1.92-1.5,4.42-2.25,7.5-2.25
					c3.14,0,5.67,0.75,7.59,2.25c1.92,1.5,2.95,3.59,3.08,6.27h-7.5c-0.05-0.92-0.39-1.64-1.01-2.17c-0.62-0.53-1.42-0.79-2.39-0.79
					c-0.84,0-1.51,0.22-2.03,0.67c-0.51,0.45-0.77,1.09-0.77,1.93c0,0.92,0.43,1.64,1.3,2.15c0.87,0.51,2.22,1.07,4.06,1.66
					c1.84,0.62,3.33,1.22,4.48,1.79c1.15,0.57,2.14,1.39,2.98,2.47c0.84,1.08,1.26,2.48,1.26,4.18c0,1.62-0.41,3.1-1.24,4.42
					c-0.83,1.33-2.02,2.38-3.59,3.16c-1.57,0.79-3.42,1.18-5.56,1.18C222.45,138.91,220.58,138.57,218.93,137.9z"/>
				<path class="st0" d="M244.2,137.04c-2.23-1.24-4-2.98-5.31-5.21s-1.97-4.74-1.97-7.53c0-2.79,0.66-5.29,1.97-7.5
					c1.31-2.22,3.08-3.95,5.31-5.19c2.23-1.24,4.68-1.87,7.36-1.87s5.13,0.62,7.36,1.87c2.23,1.24,3.99,2.98,5.27,5.19
					c1.28,2.22,1.93,4.72,1.93,7.5c0,2.79-0.65,5.29-1.95,7.53c-1.3,2.23-3.06,3.97-5.27,5.21c-2.22,1.24-4.67,1.87-7.34,1.87
					S246.43,138.29,244.2,137.04z M257.02,130.31c1.37-1.51,2.05-3.51,2.05-6c0-2.51-0.68-4.52-2.05-6.02
					c-1.37-1.5-3.18-2.25-5.46-2.25c-2.3,0-4.13,0.74-5.5,2.23c-1.37,1.49-2.05,3.5-2.05,6.04c0,2.51,0.68,4.52,2.05,6.02
					c1.37,1.5,3.2,2.25,5.5,2.25C253.83,132.58,255.65,131.82,257.02,130.31z"/>
				<path class="st0" d="M276.69,133.27h9.09v5.35h-16.02v-28.48h6.94V133.27z"/>
				<path class="st0" d="M294.84,110.15v17.04c0,1.7,0.42,3.02,1.26,3.94c0.84,0.92,2.07,1.38,3.69,1.38c1.62,0,2.87-0.46,3.73-1.38
					c0.87-0.92,1.3-2.23,1.3-3.94v-17.04h6.94v17c0,2.54-0.54,4.69-1.62,6.45c-1.08,1.76-2.54,3.08-4.36,3.98
					c-1.83,0.89-3.86,1.34-6.11,1.34c-2.25,0-4.25-0.44-6.02-1.32c-1.77-0.88-3.17-2.2-4.2-3.98c-1.03-1.77-1.54-3.93-1.54-6.47v-17
					H294.84z"/>
				<path class="st0" d="M336.46,110.15v5.56h-7.55v22.92h-6.94v-22.92h-7.55v-5.56H336.46z"/>
				<path class="st0" d="M345.8,110.15v28.48h-6.94v-28.48H345.8z"/>
				<path class="st0" d="M355.86,137.04c-2.23-1.24-4-2.98-5.31-5.21c-1.31-2.23-1.97-4.74-1.97-7.53c0-2.79,0.66-5.29,1.97-7.5
					c1.31-2.22,3.08-3.95,5.31-5.19c2.23-1.24,4.69-1.87,7.36-1.87s5.13,0.62,7.36,1.87c2.23,1.24,3.99,2.98,5.27,5.19
					c1.28,2.22,1.93,4.72,1.93,7.5c0,2.79-0.65,5.29-1.95,7.53c-1.3,2.23-3.06,3.97-5.27,5.21c-2.22,1.24-4.67,1.87-7.34,1.87
					S358.09,138.29,355.86,137.04z M368.68,130.31c1.37-1.51,2.05-3.51,2.05-6c0-2.51-0.68-4.52-2.05-6.02s-3.18-2.25-5.46-2.25
					c-2.3,0-4.13,0.74-5.5,2.23c-1.37,1.49-2.05,3.5-2.05,6.04c0,2.51,0.68,4.52,2.05,6.02c1.37,1.5,3.2,2.25,5.5,2.25
					C365.49,132.58,367.31,131.82,368.68,130.31z"/>
				<path class="st0" d="M405.6,138.63h-6.94l-11.6-17.57v17.57h-6.94v-28.48h6.94l11.6,17.65v-17.65h6.94V138.63z"/>
			</g>
			<g>
				<g>
					<g>
						<path class="st0" d="M216.94,35.56v15.54h-16.6v46.99h-19.61V51.11H164.3V35.56H216.94z"/>
						<path class="st0" d="M321.82,98.09l-11.48-16.25l-11.53,16.19l-21.73,0l21.95-32.17l-21.46-30.29h23.23l11.04,15.63
							l9.19-15.63h22.35l-20.23,31.62l21.9,30.91H321.82z"/>
						<polygon class="st0" points="254.67,39.79 253.08,35.46 235.3,35.46 233.72,39.79 212.43,97.95 231.56,97.95 233.67,91.53 
							233.65,91.53 238.9,75.45 238.87,75.45 239.38,73.9 244.13,59.26 249.39,75.45 249.35,75.45 254.16,90.18 256.71,97.95 
							275.92,97.95 268.24,76.87 						"/>
					</g>
				</g>
				<g>
					<g>
						<path class="st0" d="M357.2,95.63l-0.93-1.74h-0.14v1.74h-1.31v-4.71h2.06c0.38,0,0.7,0.07,0.96,0.2
							c0.26,0.13,0.46,0.31,0.59,0.54c0.13,0.23,0.2,0.49,0.2,0.77c0,0.32-0.09,0.6-0.26,0.84c-0.18,0.24-0.43,0.42-0.77,0.52
							l1.06,1.84H357.2z M356.12,93h0.65c0.18,0,0.31-0.04,0.4-0.13c0.09-0.08,0.13-0.21,0.13-0.37c0-0.15-0.05-0.27-0.14-0.36
							c-0.09-0.09-0.22-0.13-0.4-0.13h-0.65V93z"/>
					</g>
					<path class="st0" d="M356.61,97.58c-2.39,0-4.33-1.94-4.33-4.33s1.94-4.33,4.33-4.33s4.33,1.94,4.33,4.33
						S359,97.58,356.61,97.58z M356.61,89.64c-1.99,0-3.61,1.62-3.61,3.61s1.62,3.61,3.61,3.61s3.61-1.62,3.61-3.61
						S358.6,89.64,356.61,89.64z"/>
				</g>
			</g>
		</g>
	</g>
</g>
</svg>
